<?xml version="1.0" encoding="UTF-8"?>
<!DOCTYPE svg PUBLIC "-//W3C//DTD SVG 1.1//EN" "http://www.w3.org/Graphics/SVG/1.1/DTD/svg11.dtd">
<svg xmlns="http://www.w3.org/2000/svg" version="1.1" width="169px" height="71px" style="shape-rendering:geometricPrecision; text-rendering:geometricPrecision; image-rendering:optimizeQuality; fill-rule:evenodd; clip-rule:evenodd" xmlns:xlink="http://www.w3.org/1999/xlink">
<g><path style="opacity:1" fill="#0a184d" d="M -0.5,-0.5 C 55.8333,-0.5 112.167,-0.5 168.5,-0.5C 168.5,23.1667 168.5,46.8333 168.5,70.5C 112.167,70.5 55.8333,70.5 -0.5,70.5C -0.5,46.8333 -0.5,23.1667 -0.5,-0.5 Z"/></g>
<g><path style="opacity:1" fill="#e6a981" d="M 104.5,25.5 C 104.414,27.677 103.747,29.677 102.5,31.5C 103.167,32.5 103.833,33.5 104.5,34.5C 101.075,35.2896 97.742,36.2896 94.5,37.5C 94.0825,38.2216 93.4158,38.7216 92.5,39C 86.0417,40.3009 80.0417,39.3009 74.5,36C 72.1667,35.6667 69.8333,35.3333 67.5,35C 68.6872,33.9805 69.6872,32.8139 70.5,31.5C 69.2528,29.677 68.5861,27.677 68.5,25.5C 66.8216,20.0036 67.4882,14.6702 70.5,9.5C 69.6872,8.18614 68.6872,7.01948 67.5,6C 73.6744,4.67102 79.8411,3.17102 86,1.5C 92.3597,2.4285 98.5264,4.09516 104.5,6.5C 103.833,7.5 103.167,8.5 102.5,9.5C 105.417,14.7043 106.084,20.0377 104.5,25.5 Z"/></g>
<g><path style="opacity:1" fill="#0e164c" d="M 82.5,2.5 C 87.6551,1.88952 92.3218,3.05618 96.5,6C 92.9564,9.37504 89.6231,12.875 86.5,16.5C 82.9842,13.1514 79.6508,9.65138 76.5,6C 78.4319,4.5415 80.4319,3.37483 82.5,2.5 Z"/></g>
<g><path style="opacity:1" fill="#08144c" d="M 68.5,25.5 C 67.8256,20.016 68.9923,15.016 72,10.5C 75.3493,13.682 78.516,17.0154 81.5,20.5C 78.516,23.9846 75.3493,27.318 72,30.5C 70.8111,28.7669 69.6444,27.1002 68.5,25.5 Z"/></g>
<g><path style="opacity:1" fill="#0b154c" d="M 104.5,25.5 C 103.356,27.1002 102.189,28.7669 101,30.5C 97.3132,27.6469 94.1465,24.3135 91.5,20.5C 94.484,17.0154 97.6507,13.682 101,10.5C 104.008,15.016 105.174,20.016 104.5,25.5 Z"/></g>
<g><path style="opacity:1" fill="#09154c" d="M 94.5,37.5 C 90.204,38.4625 85.8706,38.6292 81.5,38C 79.3825,37.7398 77.7158,36.7398 76.5,35C 79.682,31.6507 83.0154,28.484 86.5,25.5C 89.9846,28.484 93.318,31.6507 96.5,35C 95.6195,35.7083 94.9528,36.5416 94.5,37.5 Z"/></g>
<g><path style="opacity:1" fill="#f4b184" d="M 10.5,36.5 C 27.5,36.5 44.5,36.5 61.5,36.5C 61.5,37.5 61.5,38.5 61.5,39.5C 44.5,39.5 27.5,39.5 10.5,39.5C 10.5,38.5 10.5,37.5 10.5,36.5 Z"/></g>
<g><path style="opacity:1" fill="#fdb686" d="M 111.5,36.5 C 128.167,36.5 144.833,36.5 161.5,36.5C 161.5,37.5 161.5,38.5 161.5,39.5C 144.833,39.5 128.167,39.5 111.5,39.5C 111.5,38.5 111.5,37.5 111.5,36.5 Z"/></g>
<g><path style="opacity:1" fill="#e9b184" d="M 107.5,54.5 C 109.527,54.3379 111.527,54.5045 113.5,55C 114.86,56.9376 114.527,58.6043 112.5,60C 110.655,61.128 108.655,61.628 106.5,61.5C 106.33,62.8221 106.663,63.9887 107.5,65C 109.856,65.1554 112.189,65.1554 114.5,65C 106.25,69.4334 103.083,66.9334 105,57.5C 106.045,56.6266 106.878,55.6266 107.5,54.5 Z"/></g>
<g><path style="opacity:1" fill="#1c184c" d="M 109.5,55.5 C 111.686,55.5106 112.519,56.5106 112,58.5C 106.173,60.3655 105.34,59.3655 109.5,55.5 Z"/></g>
<g><path style="opacity:1" fill="#e5ab82" d="M 49.5,48.5 C 50.5,48.5 51.5,48.5 52.5,48.5C 52.7553,51.0163 53.5886,53.3496 55,55.5C 57.1896,53.6116 59.0229,51.4449 60.5,49C 61.5,48.3333 62.5,48.3333 63.5,49C 61.1179,51.6102 59.1179,54.4435 57.5,57.5C 58.5559,60.6128 59.8892,63.6128 61.5,66.5C 61.1667,66.8333 60.8333,67.1667 60.5,67.5C 58.4325,65.0445 56.5992,62.3778 55,59.5C 53.1667,62 51.3333,64.5 49.5,67C 48.365,67.7494 47.365,67.5827 46.5,66.5C 49.075,63.681 51.4083,60.681 53.5,57.5C 51.88,54.5963 50.5467,51.5963 49.5,48.5 Z"/></g>
<g><path style="opacity:1" fill="#eeb585" d="M 80.5,54.5 C 87.0001,53.4987 89.5001,56.1653 88,62.5C 85.7873,67.6696 82.4539,68.6696 78,65.5C 76.8118,61.2586 77.6451,57.5919 80.5,54.5 Z"/></g>
<g><path style="opacity:1" fill="#0d154c" d="M 82.5,55.5 C 86.7022,56.9518 87.5355,59.6185 85,63.5C 81.8114,66.4929 79.9781,65.8263 79.5,61.5C 79.6284,59.0452 80.6284,57.0452 82.5,55.5 Z"/></g>
<g><path style="opacity:1" fill="#e7af83" d="M 64.5,54.5 C 65.7498,54.5774 66.5831,55.244 67,56.5C 69.0749,54.3517 71.4082,54.0183 74,55.5C 74.7927,59.423 74.626,63.2564 73.5,67C 73.1667,67.1667 72.8333,67.3333 72.5,67.5C 71.4328,64.7027 71.4328,61.8693 72.5,59C 72.0305,55.1784 70.5305,54.6784 68,57.5C 66.8732,60.3771 66.2065,63.3771 66,66.5C 65.586,66.9574 65.086,67.2907 64.5,67.5C 64.0639,63.2444 64.0639,58.911 64.5,54.5 Z"/></g>
<g><path style="opacity:1" fill="#ecb083" d="M 100.5,48.5 C 101.693,48.9704 102.36,49.9704 102.5,51.5C 102.079,56.9711 101.079,62.3044 99.5,67.5C 98.8076,66.9747 98.3076,66.3081 98,65.5C 96.0072,67.3782 93.8405,67.7115 91.5,66.5C 88.7586,58.6142 91.4252,54.6142 99.5,54.5C 99.8333,52.5 100.167,50.5 100.5,48.5 Z"/></g>
<g><path style="opacity:1" fill="#16184d" d="M 95.5,55.5 C 98.2431,55.0772 99.5765,56.2439 99.5,59C 99.2497,63.6121 97.0831,65.4454 93,64.5C 92.1307,61.0072 92.964,58.0072 95.5,55.5 Z"/></g>
<g><path style="opacity:1" fill="#e3ae83" d="M 118.5,54.5 C 120.604,54.2011 122.604,54.5344 124.5,55.5C 123.284,56.0959 121.951,56.2626 120.5,56C 119.663,57.0113 119.33,58.1779 119.5,59.5C 123.707,59.6938 125.04,61.6938 123.5,65.5C 120.712,68.0748 118.045,68.0748 115.5,65.5C 117.343,65.2448 119.343,65.0781 121.5,65C 121.957,64.586 122.291,64.086 122.5,63.5C 120.971,61.8119 119.137,60.4786 117,59.5C 116.387,57.5048 116.887,55.8381 118.5,54.5 Z"/></g>
</svg>
